<?xml version="1.0" encoding="UTF-8" standalone="no"?>
<!-- Created with Inkscape (http://www.inkscape.org/) -->

<svg
   xmlns:dc="http://purl.org/dc/elements/1.1/"
   xmlns:cc="http://creativecommons.org/ns#"
   xmlns:rdf="http://www.w3.org/1999/02/22-rdf-syntax-ns#"
   xmlns:svg="http://www.w3.org/2000/svg"
   xmlns="http://www.w3.org/2000/svg"
   xmlns:sodipodi="http://sodipodi.sourceforge.net/DTD/sodipodi-0.dtd"
   xmlns:inkscape="http://www.inkscape.org/namespaces/inkscape"
   width="744.09448819"
   height="1052.3622047"
   id="svg2"
   version="1.1"
   inkscape:version="0.48.3.1 r9886"
   sodipodi:docname="logo.svg">
  <defs
     id="defs4" />
  <sodipodi:namedview
     id="base"
     pagecolor="#ffffff"
     bordercolor="#666666"
     borderopacity="1.0"
     inkscape:pageopacity="0.0"
     inkscape:pageshadow="2"
     inkscape:zoom="3.959798"
     inkscape:cx="346.99778"
     inkscape:cy="603.47646"
     inkscape:document-units="px"
     inkscape:current-layer="layer1"
     showgrid="false"
     inkscape:window-width="1278"
     inkscape:window-height="973"
     inkscape:window-x="2"
     inkscape:window-y="0"
     inkscape:window-maximized="1" />
  <metadata
     id="metadata7">
    <rdf:RDF>
      <cc:Work
         rdf:about="">
        <dc:format>image/svg+xml</dc:format>
        <dc:type
           rdf:resource="http://purl.org/dc/dcmitype/StillImage" />
        <dc:title></dc:title>
      </cc:Work>
    </rdf:RDF>
  </metadata>
  <g
     inkscape:label="Layer 1"
     inkscape:groupmode="layer"
     id="layer1">
    <path
       sodipodi:type="inkscape:offset"
       inkscape:radius="0.6866973"
       inkscape:original="M 327.75 417.78125 C 327.49333 417.52458 325.36784 418.68109 323.03125 420.34375 C 315.73289 425.53711 314.12363 426.02868 303.03125 426.625 C 292.64672 427.18327 292.13969 427.32906 289.125 430.34375 C 282.3353 437.13345 284.96371 448.45536 294.0625 451.625 C 303.17657 454.79996 311.92438 447.96543 311.03125 438.375 C 310.78743 435.75693 309.8439 432.81406 308.9375 431.8125 C 307.06505 429.74347 307.64957 428.6383 310.6875 428.625 C 311.83333 428.61997 315.03125 427.52329 317.78125 426.1875 C 320.53125 424.85171 322.91389 424.1196 323.0625 424.53125 C 323.29745 425.18204 320.09302 434.06549 313.09375 452.15625 C 312.02979 454.90625 309.88635 460.53125 308.34375 464.65625 C 306.80114 468.78125 305.21642 472.94375 304.8125 473.90625 C 304.31448 475.09296 304.51213 475.65625 305.46875 475.65625 C 306.30329 475.65625 307.75987 473.10365 309.03125 469.40625 C 310.21326 465.96875 315.03704 453.03591 319.71875 440.6875 C 324.40047 428.33909 328.00668 418.03792 327.75 417.78125 z M 298.46875 428.59375 C 300.78057 428.64567 303.13979 429.49572 305.1875 431.21875 C 310.86773 435.99835 310.19951 444.89332 303.875 448.75 C 298.3857 452.09737 291.72261 450.31503 288.8125 444.6875 C 286.90501 440.99885 286.8872 438.31895 288.78125 434.65625 C 290.86448 430.62773 294.61572 428.50721 298.46875 428.59375 z M 334.28125 440.3125 C 320.75274 440.3125 316.39469 459.01691 328.53125 465 C 332.79292 467.10092 336.0558 467.04511 340.21875 464.8125 C 352.03334 458.47627 347.63125 440.3125 334.28125 440.3125 z M 334.28125 442.65625 C 345.96809 442.65625 349.48343 457.99563 338.9375 463 C 334.6891 465.01596 333.62801 465.01854 329.46875 462.96875 C 319.08854 457.85309 322.69256 442.65625 334.28125 442.65625 z M 290.78125 482.21875 C 290.32197 482.09582 290.28426 482.4543 290.4375 483.25 C 290.86279 485.45834 297.96363 489.57298 304.28125 491.28125 C 311.10334 493.12593 323.89974 492.87846 329.96875 490.78125 C 336.07785 488.67019 342.27125 484.68086 342.28125 482.84375 C 342.28548 482.03681 340.96453 482.54606 338.8125 484.1875 C 327.76288 492.61547 304.75365 492.5894 293.65625 484.125 C 292.13187 482.9623 291.24053 482.34168 290.78125 482.21875 z "
       style="fill:#333333;fill-opacity:1"
       id="path3366"
       d="m 327.5,417.0625 c -0.17586,0.0208 -0.33516,0.0654 -0.5,0.125 -0.32968,0.11921 -0.71058,0.32033 -1.15625,0.5625 -0.89134,0.48433 -2.03159,1.1865 -3.21875,2.03125 -7.27619,5.17758 -8.54927,5.56082 -19.625,6.15625 -5.19487,0.27927 -7.94648,0.45167 -9.875,0.96875 -1.92852,0.51708 -2.98296,1.42046 -4.5,2.9375 -7.12225,7.12225 -4.32097,19.11426 5.21875,22.4375 4.76604,1.66029 9.48108,0.71314 12.875,-1.9375 3.39392,-2.65064 5.46716,-7.01494 5,-12.03125 -0.12729,-1.36681 -0.44841,-2.794 -0.84375,-4.03125 -0.39534,-1.23725 -0.83932,-2.27651 -1.4375,-2.9375 -0.43578,-0.48153 -0.69956,-0.87941 -0.8125,-1.15625 -0.11294,-0.27684 -0.0899,-0.35589 -0.0625,-0.40625 0.0274,-0.0504 0.14723,-0.17387 0.5,-0.28125 0.35277,-0.10738 0.90706,-0.18436 1.625,-0.1875 0.78918,-0.003 1.84044,-0.29815 3.15625,-0.75 1.31581,-0.45185 2.84734,-1.06867 4.25,-1.75 1.34924,-0.65538 2.59071,-1.15413 3.5,-1.4375 0.28903,-0.0901 0.45487,-0.11368 0.65625,-0.15625 -0.0758,0.30078 -0.15658,0.65672 -0.3125,1.15625 -0.37106,1.18881 -0.9597,2.91063 -1.78125,5.1875 -1.6431,4.55373 -4.18879,11.30076 -7.6875,20.34375 -1.06568,2.75444 -3.23729,8.37136 -4.78125,12.5 -1.54165,4.12244 -3.12145,8.3167 -3.5,9.21875 -0.27656,0.65899 -0.47089,1.24534 -0.25,1.84375 0.11045,0.29921 0.37662,0.55016 0.65625,0.6875 0.27963,0.13734 0.56845,0.1875 0.875,0.1875 0.5587,0 0.91948,-0.32885 1.25,-0.6875 0.33052,-0.35865 0.63881,-0.8276 0.96875,-1.40625 0.65988,-1.15731 1.35389,-2.746 2,-4.625 1.16742,-3.39507 6.0067,-16.3415 10.6875,-28.6875 2.34258,-6.17874 4.38622,-11.84095 5.84375,-16 0.72876,-2.07952 1.30818,-3.79192 1.6875,-5 0.18966,-0.60404 0.34816,-1.08272 0.4375,-1.4375 0.0447,-0.17739 0.074,-0.3331 0.0937,-0.46875 0.01,-0.0678 0.002,-0.1265 0,-0.21875 -0.002,-0.0922 0.0946,-0.24917 -0.1875,-0.53125 -0.29079,-0.29079 -0.57414,-0.23952 -0.75,-0.21875 z m -29.03125,12.21875 c 2.1541,0.0484 4.34722,0.84138 6.28125,2.46875 5.33878,4.49229 4.72341,12.78273 -1.21875,16.40625 -5.1859,3.16236 -11.35291,1.51894 -14.09375,-3.78125 -1.84596,-3.56966 -1.86172,-5.86651 -0.0312,-9.40625 1.9739,-3.81709 5.47123,-5.76816 9.0625,-5.6875 z m 35.8125,10.34375 c -7.08073,0 -11.83131,4.93729 -13.15625,10.625 -1.32494,5.68771 0.74168,12.24355 7.09375,15.375 4.39068,2.16452 8.02205,2.08224 12.3125,-0.21875 6.17945,-3.31407 8.16869,-9.77903 6.8125,-15.375 -1.35619,-5.59597 -6.07606,-10.40625 -13.0625,-10.40625 z m 0,3.71875 c 5.54298,0 9.04217,3.56741 10,7.75 0.95783,4.18259 -0.62424,8.90824 -5.625,11.28125 -2.1043,0.99854 -3.36054,1.4406 -4.5,1.4375 -1.13946,-0.003 -2.31624,-0.45414 -4.375,-1.46875 -4.91999,-2.42471 -6.45555,-7.11792 -5.46875,-11.28125 0.9868,-4.16333 4.47457,-7.71875 9.96875,-7.71875 z m -43.3125,38.21875 c -0.19761,-0.0529 -0.44227,-0.0897 -0.71875,0.0312 -0.27648,0.12095 -0.47235,0.41043 -0.53125,0.625 -0.11779,0.42915 -0.051,0.72932 0.0312,1.15625 0.16594,0.86165 0.81325,1.57688 1.6875,2.34375 0.87425,0.76687 2.03825,1.56856 3.375,2.34375 2.6735,1.55038 6.05091,3.00152 9.28125,3.875 7.0459,1.9052 19.75887,1.68908 26.09375,-0.5 3.11305,-1.07575 6.22679,-2.63077 8.59375,-4.15625 1.18348,-0.76274 2.17677,-1.50237 2.90625,-2.21875 0.72948,-0.71638 1.27666,-1.375 1.28125,-2.21875 0.001,-0.19435 -0.0506,-0.41889 -0.1875,-0.625 -0.1369,-0.20611 -0.35324,-0.35278 -0.5625,-0.40625 -0.41851,-0.10695 -0.76306,0.0162 -1.125,0.15625 -0.72387,0.28005 -1.58484,0.84646 -2.6875,1.6875 -5.34179,4.07439 -13.74901,6.16717 -22.15625,6.15625 -8.40724,-0.0109 -16.82049,-2.12513 -22.1875,-6.21875 -0.76666,-0.58476 -1.38157,-1.04396 -1.875,-1.375 -0.49343,-0.33104 -0.81747,-0.54885 -1.21875,-0.65625 z"
       inkscape:export-filename="/home/fabio/Projects/AndroidFaceRecognizer/logo.png"
       inkscape:export-xdpi="300.85699"
       inkscape:export-ydpi="300.85699" />
  </g>
</svg>
